<?xml version="1.0" encoding="utf-8"?>
<!-- Generator: Adobe Illustrator 19.1.0, SVG Export Plug-In . SVG Version: 6.00 Build 0)  -->
<svg version="1.1" id="Layer_2" xmlns="http://www.w3.org/2000/svg" xmlns:xlink="http://www.w3.org/1999/xlink" x="0px" y="0px"
	 viewBox="-297 389 16 16" style="enable-background:new -297 389 16 16;" xml:space="preserve">
<style type="text/css">
	.st0{fill:#787878;}
</style>
<g>
	<path class="st0" d="M-289,405c-0.7,0-1.4-0.1-2.1-0.3c-0.7-0.2-1.3-0.5-1.9-0.8c-0.6-0.3-1.1-0.8-1.6-1.2c-0.5-0.5-0.9-1-1.2-1.6
		c-0.3-0.6-0.6-1.2-0.8-1.9c-0.2-0.7-0.3-1.4-0.3-2.1c0-0.7,0.1-1.4,0.3-2.1c0.2-0.7,0.5-1.3,0.8-1.9c0.3-0.6,0.8-1.1,1.2-1.6
		c0.5-0.5,1-0.9,1.6-1.2c0.6-0.3,1.2-0.6,1.9-0.8c0.7-0.2,1.4-0.3,2.1-0.3c0.7,0,1.4,0.1,2.1,0.3c0.7,0.2,1.3,0.5,1.9,0.8
		c0.6,0.3,1.1,0.8,1.6,1.2c0.5,0.5,0.9,1,1.2,1.6c0.3,0.6,0.6,1.2,0.8,1.9c0.2,0.7,0.3,1.4,0.3,2.1c0,0.7-0.1,1.4-0.3,2.1
		c-0.2,0.7-0.5,1.3-0.8,1.9c-0.3,0.6-0.8,1.1-1.2,1.6c-0.5,0.5-1,0.9-1.6,1.2c-0.6,0.3-1.2,0.6-1.9,0.8
		C-287.5,404.9-288.2,405-289,405z M-295.8,397c0,0.6,0.1,1.2,0.2,1.8c0.2,0.6,0.4,1.1,0.7,1.6c0.3,0.5,0.7,1,1.1,1.4
		c0.4,0.4,0.9,0.8,1.4,1.1c0.5,0.3,1.1,0.5,1.6,0.7c0.6,0.2,1.2,0.2,1.8,0.2c0.6,0,1.2-0.1,1.8-0.2c0.6-0.2,1.1-0.4,1.6-0.7
		c0.5-0.3,1-0.7,1.4-1.1c0.4-0.4,0.8-0.9,1.1-1.4c0.3-0.5,0.5-1,0.7-1.6c0.2-0.6,0.2-1.2,0.2-1.8c0-0.6-0.1-1.2-0.2-1.8
		s-0.4-1.1-0.7-1.6c-0.3-0.5-0.7-1-1.1-1.4c-0.4-0.4-0.9-0.8-1.4-1.1c-0.5-0.3-1-0.5-1.6-0.7c-0.6-0.2-1.2-0.2-1.8-0.2
		c-0.6,0-1.2,0.1-1.8,0.2c-0.6,0.2-1.1,0.4-1.6,0.7c-0.5,0.3-1,0.7-1.4,1.1c-0.4,0.4-0.8,0.9-1.1,1.4c-0.3,0.5-0.5,1.1-0.7,1.6
		S-295.8,396.4-295.8,397z"/>
</g>
<g>
	<path class="st0" d="M-289,393.3l3.6,3.6l-3.6,3.6h-2.4l3.6-3.6l-3.6-3.6H-289z"/>
</g>
</svg>
